# xmcd
#
# Track frame offsets:
#	150
#	12741
#	25035
#	39885
#	55317
#	66259
#	80118
#	93181
#	105691
#	122942
#	133293
#	148105
#	159014
#	172400
#	182063
#	196532
#
# Disc length: 2763 seconds
#
# Revision: 0
# Processed by: cddbd v1.5.2PL0 Copyright (c) Steve Scherf et al.
# Submitted via: audiograbber 1.83.01
#
DISCID=df0ac910
DTITLE=Various Artist - Nashville Super Hits Vol.3
DYEAR=1978
DGENRE=Country
TTITLE0=Don Williams - Some Broken Hearts Never Mend
TTITLE1=Tommy Overstreet - Don´t Go City Girl On Me
TTITLE2=John Wesley Ryles - Fool
TTITLE3=Tompall Glaser - It´ll Be Her
TTITLE4=Narvel Felts - I Don´t Anymore
TTITLE5=Billy "Crash" Craddock - Broken Down In Tiny Pieces
TTITLE6=Oak Ridge Boys - Yáll Come Back Saloon
TTITLE7=O. B. McClinton - Who´s Making Love
TTITLE8=The Amazing Rhytm Aces - The End Is Not In Sight (The Cowboy Tune)
TTITLE9=Freddy Fender - The Rains Came
TTITLE10=Roy Clark - We Can´t Build A Fire In The Rain
TTITLE11=Roy Head - Angel With A Broken Wing
TTITLE12=Barbara Mandrell - Married But Not To Each Other
TTITLE13=Red Steagall - Lone Star Beer And Bob Wills Music
TTITLE14=Hank Thompson - Just An Old Flame
TTITLE15=George Hamilton IV - I Wonder Who´s Kissing Her Now
EXTD=
EXTT0=
EXTT1=
EXTT2=
EXTT3=
EXTT4=
EXTT5=
EXTT6=
EXTT7=
EXTT8=
EXTT9=
EXTT10=
EXTT11=
EXTT12=
EXTT13=
EXTT14=
EXTT15=
PLAYORDER=
